<svg width="700" height="700" viewBox="0 0 700 700" fill="none" xmlns="http://www.w3.org/2000/svg">
<path d="M100 0H600C655 0 700 45 700 100V600C700 655 655 700 600 700H100C45 700 0 655 0 600V100C0 45 45 0 100 0Z" fill="black"/>
<path fill-rule="evenodd" clip-rule="evenodd" d="M430.204 172.39C449.246 150.321 462.081 119.583 458.569 89C431.129 90.0447 397.931 106.529 378.256 128.572C360.587 148.134 345.164 179.39 349.31 209.373C379.92 211.645 411.163 194.485 430.204 172.39ZM498.844 366.5C499.61 445.557 571.208 471.855 572 472.195C571.419 474.049 560.564 509.667 534.286 546.492C511.547 578.303 487.963 609.985 450.804 610.664C414.305 611.317 402.553 589.928 360.799 589.928C319.071 589.928 306.024 609.983 271.48 611.315C235.615 612.594 208.281 576.898 185.383 545.192C138.532 480.342 102.746 361.932 150.812 282.013C174.687 242.341 217.339 217.18 263.662 216.553C298.867 215.9 332.117 239.253 353.642 239.253C375.166 239.253 415.573 211.177 458.041 215.303C475.815 216.008 525.73 222.17 557.765 267.118C555.177 268.659 498.21 300.423 498.844 366.5Z" fill="url(#paint0_linear_37_22)"/>
<defs>
<linearGradient id="paint0_linear_37_22" x1="350" y1="611.348" x2="350" y2="89" gradientUnits="userSpaceOnUse">
<stop offset="0.682692" stop-color="white"/>
<stop offset="1" stop-color="#666666"/>
</linearGradient>
</defs>
</svg>
