<svg width="700" height="700" viewBox="0 0 700 700" fill="none" xmlns="http://www.w3.org/2000/svg">
<path d="M100 0H600C655 0 700 45 700 100V600C700 655 655 700 600 700H100C45 700 0 655 0 600V100C0 45 45 0 100 0Z" fill="black"/>
<path d="M354.758 315.695V397.955H490.79C485.246 433.265 449.657 501.47 354.758 501.47C272.97 501.47 206.153 433.655 206.153 349.985C206.153 266.315 272.955 198.5 354.758 198.5C401.346 198.5 432.574 218.27 450.361 235.46L515.38 172.73C473.633 133.745 419.537 110 354.758 110C222.232 110 115 217.265 115 350C115 482.735 222.232 590 354.758 590C493.128 590 585 492.65 585 355.475C585 339.695 583.277 327.665 581.179 315.71L354.758 315.695Z" fill="url(#paint0_linear_37_23)"/>
<defs>
<linearGradient id="paint0_linear_37_23" x1="115" y1="350" x2="585" y2="350" gradientUnits="userSpaceOnUse">
<stop offset="0.591346" stop-color="white"/>
<stop offset="1" stop-color="#999999"/>
</linearGradient>
</defs>
</svg>
