<svg width="700" height="700" viewBox="0 0 700 700" fill="none" xmlns="http://www.w3.org/2000/svg">
<path d="M100 0H600C655 0 700 45 700 100V600C700 655 655 700 600 700H100C45 700 0 655 0 600V100C0 45 45 0 100 0Z" fill="black"/>
<path d="M135 408.924C135 318.924 180 228.924 232.5 228.924C260 228.924 285 246.424 322.5 298.924C287.5 351.424 267.5 386.424 267.5 386.424C220 458.924 205 476.424 177.5 476.424C150 473.924 135 451.424 135 408.924ZM442.5 376.424L410 323.924C402.5 308.924 392.5 296.424 385 283.924C415 238.924 437.5 216.424 467.5 216.424C527.5 216.424 575 303.924 575 411.424C575 451.424 562.5 476.424 535 476.424C505 473.924 492.5 456.424 442.5 376.424ZM357.5 246.424C312.5 191.424 277.5 168.924 232.5 168.924C142.5 168.924 75 286.424 75 408.924C75 486.424 112.5 533.924 175 533.924C220 533.924 252.5 513.924 310 411.424C310 411.424 335 368.924 350 338.924C355 348.924 362.5 358.924 367.5 368.924L395 413.924C447.5 501.424 477.5 531.424 530 531.424C590 531.424 625 481.424 625 403.924C625 273.924 555 166.424 470 166.424C425 168.924 390 203.924 357.5 246.424Z" fill="url(#paint0_linear_37_22)"/>
<defs>
<linearGradient id="paint0_linear_37_22" x1="350" y1="166.424" x2="350" y2="533.924" gradientUnits="userSpaceOnUse">
<stop stop-color="#999999"/>
<stop offset="0.288462" stop-color="white"/>
</linearGradient>
</defs>
</svg>
