<svg width="700" height="700" viewBox="0 0 700 700" fill="none" xmlns="http://www.w3.org/2000/svg">
<path d="M100 0H600C655 0 700 45 700 100V600C700 655 655 700 600 700H100C45 700 0 655 0 600V100C0 45 45 0 100 0Z" fill="black"/>
<g clip-path="url(#clip0_37_22)">
<rect width="463" height="463" transform="translate(118 119)" fill="black"/>
<path fill-rule="evenodd" clip-rule="evenodd" d="M349.5 582H581V373.65H349.5V582ZM118 582H326.35V373.65H118V582ZM349.5 350.5H581V119H349.5V350.5ZM118 350.5H326.35V119H118V350.5Z" fill="url(#paint0_linear_37_22)"/>
</g>
<defs>
<linearGradient id="paint0_linear_37_22" x1="349.5" y1="119" x2="349.5" y2="582" gradientUnits="userSpaceOnUse">
<stop offset="0.451923" stop-color="white"/>
<stop offset="1" stop-color="#999999"/>
</linearGradient>
<clipPath id="clip0_37_22">
<rect width="463" height="463" fill="white" transform="translate(118 119)"/>
</clipPath>
</defs>
</svg>
