<svg width="700" height="700" viewBox="0 0 700 700" fill="none" xmlns="http://www.w3.org/2000/svg">
<path d="M100 0H600C655 0 700 45 700 100V600C700 655 655 700 600 700H100C45 700 0 655 0 600V100C0 45 45 0 100 0Z" fill="black"/>
<g clip-path="url(#clip0_37_22)">
<rect width="463" height="463" transform="translate(118 119)" fill="black"/>
<g clip-path="url(#clip1_37_22)">
<path d="M349.5 235.651L403.261 169.813C403.261 169.813 495.347 171.771 587.109 214.51C563.615 250.104 516.985 267.525 516.985 267.525C513.843 236.254 491.977 228.62 422.44 228.62L349.516 641.016L276.088 228.538C207.055 228.538 185.19 236.189 182.047 267.444C182.047 267.444 135.402 250.201 111.924 214.591C203.669 171.853 295.772 169.895 295.772 169.895L349.533 235.651H349.451H349.5ZM349.5 150.858C423.612 150.173 508.503 162.326 595.412 200.383C607.037 179.307 610 170.058 610 170.058C515.031 132.327 426.071 119.343 349.5 119C272.929 119.343 183.969 132.262 89 170.058C89 170.058 93.2331 181.526 103.588 200.481C190.514 162.244 275.388 150.189 349.5 150.777V150.858Z" fill="url(#paint0_linear_37_22)"/>
</g>
</g>
<defs>
<linearGradient id="paint0_linear_37_22" x1="349.5" y1="119" x2="349.5" y2="641.016" gradientUnits="userSpaceOnUse">
<stop offset="0.360577" stop-color="white"/>
<stop offset="1" stop-color="#999999"/>
</linearGradient>
<clipPath id="clip0_37_22">
<rect width="463" height="463" fill="white" transform="translate(118 119)"/>
</clipPath>
<clipPath id="clip1_37_22">
<rect width="521" height="522" fill="white" transform="translate(89 119)"/>
</clipPath>
</defs>
</svg>
